<svg width="110" height="110" viewBox="0 0 110 110" fill="none" xmlns="http://www.w3.org/2000/svg">
<g filter="url(#filter0_d_977_5)">
<circle cx="55.0125" cy="54.0125" r="43.0125" fill="url(#paint0_linear_977_5)"/>
<circle cx="55.0125" cy="54.0125" r="42.4943" stroke="#6B7280" stroke-opacity="0.5" stroke-width="1.03645"/>
</g>
<path fill-rule="evenodd" clip-rule="evenodd" d="M57.8837 33.7492C58.6321 31.4841 59.3115 29.1952 59.8962 26.8743L59.9237 26.7644L60.0407 26.292C59.4264 25.6024 58.4532 25.2112 57.5912 24.966C54.0184 23.9585 48.2793 24.5511 46.3077 26.2516L48.6723 32.0208C47.4007 30.3065 46.9734 29.6026 46.2146 28.6476C45.8964 28.8624 45.5949 29.1023 45.3129 29.365C44.6403 29.9898 44.0397 30.6803 43.9181 31.6426C43.8393 32.2669 44.0133 32.9009 44.5545 33.5494L49.9801 40.0334C50.6784 39.9158 51.361 39.7439 52.023 39.5023C51.7076 38.7317 51.3586 37.9732 51.0366 37.1988L53.012 39.3879C55.0697 38.9425 56.7243 39.2083 58.2665 40.0451L63.7688 33.2691C64.0956 32.865 64.2444 32.4611 64.2431 32.0569C64.2149 30.9591 63.2707 30.102 62.458 29.5138L62.4515 29.5093C61.8079 29.0476 61.1176 28.6863 60.6117 28.4705L57.8837 33.7492ZM63.1395 55.2788C60.5253 50.2401 54.426 48.3297 49.5154 51.0121C44.6045 53.6941 42.7427 59.9525 45.3568 64.9915C47.9707 70.0304 54.07 71.9406 58.9808 69.2586C63.8917 66.5763 65.7534 60.3178 63.1395 55.2788ZM50.8327 45.9912L51.9065 40.952C47.3071 41.8297 39.935 51.4298 37.5527 55.7947C36.3369 58.0226 35.2721 60.477 34.4 63.2207C32.6631 69.8613 34.3362 76.0734 41.3566 77.5203C45.7553 78.4271 53.9587 78.4912 58.5849 78.2456C63.5583 77.9817 71.2544 77.9897 73.2649 72.7504C76.5097 64.2933 70.5647 54.2182 65.1443 48.0519C64.4308 47.2404 63.6933 46.4842 62.9302 45.7862C61.4578 44.4572 60.0248 43.0739 58.3458 42.0157L58.3437 42.0146C57.7273 41.6301 57.0863 41.3012 56.4175 41.0591L56.4131 41.0575L56.2943 41.0155L58.746 45.6995L55.9339 41.8743L55.1853 40.8561H53.3092L52.2087 43.138L50.8327 45.9912Z" fill="white"/>
<path d="M54.8055 65.9317L51.5241 62.6504C51.4729 62.5991 51.513 62.5105 51.5854 62.5081C57.0849 62.3234 57.0182 54.5308 51.3852 54.5308H58.2257" stroke="white" stroke-width="1.03645" stroke-linecap="round" stroke-linejoin="round"/>
<path d="M51.3852 58.4688H54.8055H58.2257" stroke="white" stroke-width="1.03645" stroke-linecap="round" stroke-linejoin="round"/>
<defs>
<filter id="filter0_d_977_5" x="0.599089" y="0.635535" width="108.827" height="108.827" filterUnits="userSpaceOnUse" color-interpolation-filters="sRGB">
<feFlood flood-opacity="0" result="BackgroundImageFix"/>
<feColorMatrix in="SourceAlpha" type="matrix" values="0 0 0 0 0 0 0 0 0 0 0 0 0 0 0 0 0 0 127 0" result="hardAlpha"/>
<feMorphology radius="1.03645" operator="dilate" in="SourceAlpha" result="effect1_dropShadow_977_5"/>
<feOffset dy="1.03645"/>
<feGaussianBlur stdDeviation="5.18223"/>
<feComposite in2="hardAlpha" operator="out"/>
<feColorMatrix type="matrix" values="0 0 0 0 0 0 0 0 0 0 0 0 0 0 0 0 0 0 0.25 0"/>
<feBlend mode="normal" in2="BackgroundImageFix" result="effect1_dropShadow_977_5"/>
<feBlend mode="normal" in="SourceGraphic" in2="effect1_dropShadow_977_5" result="shape"/>
</filter>
<linearGradient id="paint0_linear_977_5" x1="55.0125" y1="11" x2="55.0125" y2="97.0251" gradientUnits="userSpaceOnUse">
<stop stop-color="#2E5AA8"/>
<stop offset="1" stop-color="#3A80C1"/>
</linearGradient>
</defs>
</svg>
