<svg width="76" height="76" viewBox="0 0 76 76" fill="none" xmlns="http://www.w3.org/2000/svg">
<g style="mix-blend-mode:darken">
<g filter="url(#filter0_d_352_8670)">
<circle cx="20" cy="20" r="20" transform="matrix(-1 0 0 1 65 9)" fill=""/>
<circle cx="20" cy="20" r="20.625" transform="matrix(-1 0 0 1 65 9)" stroke="#03518F" stroke-width="1.25"/>
</g>
<path d="M50.4378 37.8104L50.8887 37.3657L50.4381 36.9207L42.4159 29L50.4365 21.0792L50.8869 20.6345L50.4365 20.1898L48.781 18.5553L48.3419 18.1216L47.9027 18.5553L38.8788 27.4667C38.8786 27.467 38.8783 27.4672 38.8781 27.4674C38.6741 27.6677 38.5118 27.9063 38.4008 28.1696C38.2897 28.4333 38.2324 28.7163 38.2324 29.0023C38.2324 29.2883 38.2897 29.5714 38.4008 29.835C38.5118 30.0983 38.6741 30.3369 38.8781 30.5372C38.8783 30.5374 38.8786 30.5377 38.8788 30.5379L47.9029 39.4448L48.3418 39.878L48.7808 39.445L50.4378 37.8104Z" fill="#03518F" stroke="#03518F" stroke-width="1.25"/>
</g>
<defs>
<filter id="filter0_d_352_8670" x="0.25" y="0.25" width="75.5" height="75.5" filterUnits="userSpaceOnUse" color-interpolation-filters="sRGB">
<feFlood flood-opacity="0" result="BackgroundImageFix"/>
<feColorMatrix in="SourceAlpha" type="matrix" values="0 0 0 0 0 0 0 0 0 0 0 0 0 0 0 0 0 0 127 0" result="hardAlpha"/>
<feOffset dx="-7" dy="9"/>
<feGaussianBlur stdDeviation="8.25"/>
<feComposite in2="hardAlpha" operator="out"/>
<feColorMatrix type="matrix" values="0 0 0 0 0.697552 0 0 0 0 0.719809 0 0 0 0 0.7375 0 0 0 0.54 0"/>
<feBlend mode="normal" in2="BackgroundImageFix" result="effect1_dropShadow_352_8670"/>
<feBlend mode="normal" in="SourceGraphic" in2="effect1_dropShadow_352_8670" result="shape"/>
</filter>
</defs>
</svg>
