<svg width="76" height="76" viewBox="0 0 76 76" fill="none" xmlns="http://www.w3.org/2000/svg">
<g style="mix-blend-mode:darken">
<g filter="url(#filter0_d_352_8667)">
<circle cx="31" cy="29" r="20" fill=""/>
<circle cx="31" cy="29" r="20.625" stroke="#03518F" stroke-width="1.25"/>
</g>
<path d="M25.5622 37.8104L25.1113 37.3657L25.5619 36.9207L33.5841 29L25.5635 21.0792L25.1131 20.6345L25.5635 20.1898L27.219 18.5553L27.6581 18.1216L28.0973 18.5553L37.1212 27.4667C37.1214 27.467 37.1217 27.4672 37.1219 27.4674C37.3259 27.6677 37.4882 27.9063 37.5992 28.1696C37.7103 28.4333 37.7676 28.7163 37.7676 29.0023C37.7676 29.2883 37.7103 29.5714 37.5992 29.835C37.4882 30.0983 37.3259 30.3369 37.1219 30.5372C37.1217 30.5374 37.1214 30.5377 37.1212 30.5379L28.0971 39.4448L27.6582 39.878L27.2192 39.445L25.5622 37.8104Z" fill="#03518F" stroke="#03518F" stroke-width="1.25"/>
</g>
<defs>
<filter id="filter0_d_352_8667" x="0.25" y="0.25" width="75.5" height="75.5" filterUnits="userSpaceOnUse" color-interpolation-filters="sRGB">
<feFlood flood-opacity="0" result="BackgroundImageFix"/>
<feColorMatrix in="SourceAlpha" type="matrix" values="0 0 0 0 0 0 0 0 0 0 0 0 0 0 0 0 0 0 127 0" result="hardAlpha"/>
<feOffset dx="7" dy="9"/>
<feGaussianBlur stdDeviation="8.25"/>
<feComposite in2="hardAlpha" operator="out"/>
<feColorMatrix type="matrix" values="0 0 0 0 0.697552 0 0 0 0 0.719809 0 0 0 0 0.7375 0 0 0 0.54 0"/>
<feBlend mode="normal" in2="BackgroundImageFix" result="effect1_dropShadow_352_8667"/>
<feBlend mode="normal" in="SourceGraphic" in2="effect1_dropShadow_352_8667" result="shape"/>
</filter>
</defs>
</svg>
